inDegrees=yes
name=ik_S48_A03_T02
DataType=double
version=3
OpenSimVersion=4.3-2021-08-27-4bc7ad9
endheader
time	pelvis_tilt	pelvis_list	pelvis_rotation	pelvis_tx	pelvis_ty	pelvis_tz	hip_flexion_r	hip_adduction_r	hip_rotation_r	knee_angle_r	knee_angle_r_beta	ankle_angle_r	subtalar_angle_r	mtp_angle_r	hip_flexion_l	hip_adduction_l	hip_rotation_l	knee_angle_l	knee_angle_l_beta	ankle_angle_l	subtalar_angle_l	mtp_angle_l	lumbar_extension	lumbar_bending	lumbar_rotation	arm_flex_r	arm_add_r	arm_rot_r	elbow_flex_r	pro_sup_r	wrist_flex_r	wrist_dev_r	arm_flex_l	arm_add_l	arm_rot_l	elbow_flex_l	pro_sup_l	wrist_flex_l	wrist_dev_l
0	0	0	0	0	0.9399999999999999	0	0	0	0	0	0	0	0	0	0	0	0	0	0	0	0	0	0	0	0	0	0	0	0	89.99999999963507	0	0	0	0	0	0	89.99999999869995	0	0
0.02	-0.5823455866544593	1.05889962128361	-80.09321088572108	0	0.9399999999999999	0	-0.5145135401043951	-3.813198633404473	1.667768676226932	-1.778018042110082	-0.03103226899468411	0	0	0	-2.083488210965682	-1.158882106356339	2.443509962022796	-4.701755527006922	-0.08206111457011196	0	0	0	0	0	0	1.565528851327714	-1.565528851327714	0.2784676872832607	7.730107110548661	89.72153232870973	0	0	1.565528851327714	-1.565528851327714	0.2784676872832607	7.730107110548661	89.72153232782692	0	0
0.04	-0.6190683484793661	0.991035624777736	-80.03363537734634	0	0.9399999999999999	0	-0.6804793452932703	-3.74889793551012	1.529228734880204	-1.838275731351871	-0.03208396407159691	0	0	0	-2.189148226317786	-1.21284231835568	2.420515808213231	-4.627869238995747	-0.08077155557224014	0	0	0	0	0	0	1.6295017401595	-1.6295017401595	0.2902816033288729	7.93024086617936	89.7097184133591	0	0	1.6295017401595	-1.6295017401595	0.2902816033288729	7.93024086617936	89.70971841247841	0	0
0.06	-0.6464374641669506	0.8302685557816505	-79.95864650945906	0	0.9399999999999999	0	-0.9441235120618051	-3.672215645514705	1.421430194575585	-1.914717780064094	-0.03341812950859508	0	0	0	-2.38782673384289	-1.280087285922508	2.369535654912118	-4.59002683586975	-0.0801110810408245	0	0	0	0	0	0	1.632945126315499	-1.632945126315499	0.290954194045432	7.961086472489225	89.70904582268275	0	0	1.632945126315499	-1.632945126315499	0.290954194045432	7.961086472489225	89.70904582180226	0	0
0.08	-0.5954197304818478	0.6422211271525708	-79.91220478072671	0	0.9399999999999999	0	-1.271325444475742	-3.666401378630561	1.353783658010729	-2.058065502544493	-0.03592001924111313	0	0	0	-2.630981279182915	-1.287662712812209	2.284586634853799	-4.428423552520228	-0.07729057166434201	0	0	0	0	0	0	1.637434994223791	-1.637434994223791	0.2918329437730205	8.001677798919186	89.7081670730077	0	0	1.637434994223791	-1.637434994223791	0.2918329437730205	8.001677798919186	89.70816707212742	0	0
0.1	-0.5405087296704965	0.5727455087187693	-79.8897400188322	0	0.9399999999999999	0	-1.345431598424175	-3.691156674744484	1.306300211146931	-2.091691706807685	-0.03650690722045399	0	0	0	-2.719137406407218	-1.265013074780225	2.165415190059426	-4.400350692686734	-0.07680060782979668	0	0	0	0	0	0	1.639418419508016	-1.639418419508016	0.292220724601127	8.019468348212721	89.70777929220279	0	0	1.639418419508016	-1.639418419508016	0.292220724601127	8.019468348212721	89.70777929132261	0	0
0.12	-0.426158905751106	0.5128281377106066	-79.86585257435269	0	0.9399999999999999	0	-1.578239420041233	-3.798011487006611	1.202636667530178	-2.206546167200052	-0.03851149571490221	0	0	0	-2.814179875037742	-1.151206148672574	2.195730320772556	-4.206085116393878	-0.07341003390020211	0	0	0	0	0	0	1.644775151356084	-1.644775151356084	0.2932707787464273	8.068166801641498	89.70672923812035	0	0	1.644775151356084	-1.644775151356084	0.2932707787464273	8.068166801641498	89.7067292372404	0	0
0.14	-0.3585437327664129	0.5289022277769364	-79.8634957476099	0	0.9399999999999999	0	-1.599504038776052	-3.85931901737754	1.201858030263016	-2.23706539679447	-0.0390441567564969	0	0	0	-2.771149309398796	-1.061331556334592	2.110183485295337	-3.983170776957672	-0.06951944472713206	0	0	0	0	0	0	2.347294330688823	-2.347294330688823	0.4223938926888583	10.44859300136938	89.57760613176322	0	0	2.347294330688823	-2.347294330688823	0.4223938926888583	10.44859300136938	89.57760613090745	0	0
